<svg xmlns="http://www.w3.org/2000/svg" xmlns:xlink="http://www.w3.org/1999/xlink" width="1843" height="1095" viewBox="0 0 1843 1095">
  <defs>
    <filter id="Intersection_8" x="1019.591" y="724" width="328.818" height="267.73" filterUnits="userSpaceOnUse">
      <feOffset dx="3" input="SourceAlpha"/>
      <feGaussianBlur stdDeviation="5" result="blur"/>
      <feFlood flood-color="#fff" flood-opacity="0.161"/>
      <feComposite operator="in" in2="blur"/>
      <feComposite in="SourceGraphic"/>
    </filter>
  </defs>
  <g id="Groupe_44" data-name="Groupe 44" transform="translate(-573 -733)">
    <g id="LOGO" transform="matrix(0.259, -0.966, 0.966, 0.259, 1604.592, 1641.86)">
      <g transform="matrix(0.26, 0.97, -0.97, 0.26, 610.9, -1231.67)" filter="url(#Intersection_8)">
        <path id="Intersection_8-2" data-name="Intersection 8" d="M-6215.707,495.241a56.167,56.167,0,0,1-33.753-41.763,57.419,57.419,0,0,1-.424-26.615,51.463,51.463,0,0,1-24.52-27,10.977,10.977,0,0,1-.354-1.44,44.982,44.982,0,0,1,6.1,0c.71,0,1.449,1.171,1.866,1.951a43.721,43.721,0,0,0,18.724,20.116,56.81,56.81,0,0,1,3.115-7.3A55.686,55.686,0,0,1-6227.4,393c-11.995-7.654-24.175-14.974-35.86-23.085a102.418,102.418,0,0,1-30.111-31.847,67.207,67.207,0,0,1-8.565-27.04,68.118,68.118,0,0,1,5.922-38.079,57.484,57.484,0,0,1,43.552-33.38,66.14,66.14,0,0,1,38.932,3.935,56.16,56.16,0,0,1,33.752,41.763,57.437,57.437,0,0,1,.422,26.614,51.477,51.477,0,0,1,24.52,27,11.818,11.818,0,0,1,.354,1.441,45,45,0,0,1-6.1,0c-.713,0-1.452-1.171-1.868-1.951a43.782,43.782,0,0,0-18.72-20.118,57.139,57.139,0,0,1-3.122,7.3,55.683,55.683,0,0,1-17.553,20.192c11.99,7.654,24.173,14.974,35.858,23.085a102.374,102.374,0,0,1,30.134,31.859,67.188,67.188,0,0,1,8.568,27.04,68.118,68.118,0,0,1-5.922,38.079,57.488,57.488,0,0,1-43.549,33.38,66.1,66.1,0,0,1-13.109,1.314,66.207,66.207,0,0,1-25.848-5.256Zm14.167-103.049A28.7,28.7,0,0,1-6203.7,418.4a26.992,26.992,0,0,1-19.633,12.528q-.954.152-1.9.266a84.337,84.337,0,0,0,1.337,18.253,71.067,71.067,0,0,0,8.5,25.659c7.583,12.769,18.536,18.722,33.189,17.005,11.016-1.292,19.453-6.489,23.686-17.275a77.4,77.4,0,0,0,5.807-32.269,68.606,68.606,0,0,0-4.27-26.829c-3.173-8.441-7.337-16.073-15.628-20.551a35.151,35.151,0,0,0-14.354-4.208q-2.013-.147-3.984-.149a38.583,38.583,0,0,0-10.575,1.358Zm-22.637,28.242q-.286,1.736-.5,3.491l.662-.187a14.407,14.407,0,0,0,10.893-11.056,11.435,11.435,0,0,0-2.277-9.494c-.294-.37-.592-.734-.9-1.091a39.815,39.815,0,0,0-7.884,18.332Zm45.771-35.753a8.309,8.309,0,0,0,1.244,0l.267-.451c-6.425-3.576-12.791-7.21-19.275-10.637a109.565,109.565,0,0,1-24.277-16.8,28.709,28.709,0,0,1-2.151-2.148l-.173.032a63.231,63.231,0,0,1-28.069-.6,8.332,8.332,0,0,0-1.247,0l-.266.45c6.425,3.576,12.787,7.21,19.275,10.637a109.47,109.47,0,0,1,24.275,16.8,28.805,28.805,0,0,1,2.156,2.148l.169-.032a63.323,63.323,0,0,1,12.716-1.292,63.229,63.229,0,0,1,15.355,1.888Zm-68.612-138.037c-11.016,1.292-19.453,6.489-23.685,17.275a77.309,77.309,0,0,0-5.8,32.269,68.445,68.445,0,0,0,4.259,26.831c3.176,8.443,7.344,16.072,15.633,20.549a35.152,35.152,0,0,0,14.359,4.208,42.044,42.044,0,0,0,14.546-1.209,28.69,28.69,0,0,1,2.166-26.211,27,27,0,0,1,19.627-12.528c.632-.1,1.27-.189,1.9-.263a84.4,84.4,0,0,0-1.336-18.256,71.124,71.124,0,0,0-8.494-25.659c-6.729-11.332-16.115-17.294-28.386-17.294a41.388,41.388,0,0,0-4.792.286Zm41.79,68.393a14.4,14.4,0,0,0-10.9,11.056,11.457,11.457,0,0,0,2.274,9.494c.3.368.6.732.906,1.092a39.825,39.825,0,0,0,7.875-18.351c.2-1.157.359-2.321.5-3.491-.22.06-.456.124-.659.19Z" transform="matrix(0.26, -0.97, 0.97, 0.26, 2432.67, -5240.58)" fill="#445d74"/>
      </g>
    </g>
    <g id="Groupe_1" data-name="Groupe 1" transform="translate(880 578)" opacity="0.736">
      <text id="BEN" transform="translate(213 679)" fill="#2c4862" font-size="273" font-family="TeluguMN, Telugu MN"><tspan x="0" y="0">BEN</tspan></text>
      <text id="NDUI" transform="translate(810 679)" fill="#2c4862" font-size="273" font-family="TeluguMN-Bold, Telugu MN" font-weight="700"><tspan x="0" y="0">NDUI</tspan></text>
    </g>
    <line id="Ligne_2" data-name="Ligne 2" x2="503.5" transform="translate(1116 1403)" fill="none" stroke="#445d74" stroke-width="15"/>
    <text id="NDUI-2" data-name="NDUI" transform="translate(1690 1257)" fill="#2c4862" font-size="273" font-family="TeluguMN-Bold, Telugu MN" font-weight="700"><tspan x="0" y="0">NDUI</tspan></text>
    <text id="Développeur" transform="translate(1660 1434)" fill="#2c4862" font-size="117" font-family="TeluguMN-Bold, Telugu MN" font-weight="700"><tspan x="0" y="0">D</tspan><tspan y="0" font-family="Times-Bold, Times">é</tspan><tspan y="0">veloppeur</tspan></text>
    <g id="Groupe_24" data-name="Groupe 24" transform="translate(-1292 -974.935)">
      <rect id="Rectangle_3" data-name="Rectangle 3" width="743" height="743" rx="39" transform="translate(1865 1707.934)" fill="#919191" opacity="0.053"/>
      <rect id="Rectangle_4" data-name="Rectangle 4" width="609" height="609" rx="39" transform="translate(2175 2193.934)" fill="#6d8093" opacity="0.059"/>
    </g>
  </g>
</svg>
